<?xml version="1.0" encoding="UTF-8"?><svg xmlns="http://www.w3.org/2000/svg" xmlns:xlink="http://www.w3.org/1999/xlink" width="283.5pt" zoomAndPan="magnify" viewBox="0 0 283.5 283.499996" height="283.499996pt" preserveAspectRatio="xMidYMid meet" version="1.2"><defs><g/></defs><g xml:id="surface1" id="surface1"><g style="fill:rgb(0%,43.139648%,100%);fill-opacity:1;"><g transform="translate(14.173229, 139.277782)"><path style="stroke:none;" d="M 18.265625 0 L 10.6875 0 L 10.6875 -29.390625 L 1 -29.390625 L 1 -35.6875 L 27.953125 -35.6875 L 27.953125 -29.390625 L 18.265625 -29.390625 Z M 18.265625 0 "/></g></g><g style="fill:rgb(0%,43.139648%,100%);fill-opacity:1;"><g transform="translate(43.12378, 139.277782)"><path style="stroke:none;" d="M 25.046875 0 L 4.5 0 L 4.5 -35.6875 L 25.046875 -35.6875 L 25.046875 -29.5 L 12.0625 -29.5 L 12.0625 -21.65625 L 24.140625 -21.65625 L 24.140625 -15.453125 L 12.0625 -15.453125 L 12.0625 -6.25 L 25.046875 -6.25 Z M 25.046875 0 "/></g></g><g style="fill:rgb(0%,43.139648%,100%);fill-opacity:1;"><g transform="translate(71.122332, 139.277782)"><path style="stroke:none;" d="M 12.0625 -19.84375 L 14.5 -19.84375 C 16.894531 -19.84375 18.660156 -20.238281 19.796875 -21.03125 C 20.941406 -21.832031 21.515625 -23.09375 21.515625 -24.8125 C 21.515625 -26.5 20.929688 -27.703125 19.765625 -28.421875 C 18.597656 -29.140625 16.796875 -29.5 14.359375 -29.5 L 12.0625 -29.5 Z M 12.0625 -13.703125 L 12.0625 0 L 4.5 0 L 4.5 -35.6875 L 14.890625 -35.6875 C 19.742188 -35.6875 23.332031 -34.800781 25.65625 -33.03125 C 27.988281 -31.269531 29.15625 -28.59375 29.15625 -25 C 29.15625 -22.894531 28.578125 -21.023438 27.421875 -19.390625 C 26.265625 -17.753906 24.628906 -16.472656 22.515625 -15.546875 C 27.878906 -7.523438 31.378906 -2.34375 33.015625 0 L 24.609375 0 L 16.09375 -13.703125 Z M 12.0625 -13.703125 "/></g></g><g style="fill:rgb(0%,43.139648%,100%);fill-opacity:1;"><g transform="translate(104.124983, 139.277782)"><path style="stroke:none;" d="M 26.34375 0 L 23.75 -8.5 L 10.75 -8.5 L 8.15625 0 L 0 0 L 12.59375 -35.84375 L 21.84375 -35.84375 L 34.5 0 Z M 21.953125 -14.84375 C 19.554688 -22.539062 18.207031 -26.894531 17.90625 -27.90625 C 17.601562 -28.914062 17.390625 -29.710938 17.265625 -30.296875 C 16.722656 -28.210938 15.179688 -23.0625 12.640625 -14.84375 Z M 21.953125 -14.84375 "/></g></g><g style="fill:rgb(0%,43.139648%,100%);fill-opacity:1;"><g transform="translate(138.61666, 139.277782)"><path style="stroke:none;" d="M 33.203125 0 L 24.609375 0 L 15.265625 -15.046875 L 12.0625 -12.75 L 12.0625 0 L 4.5 0 L 4.5 -35.6875 L 12.0625 -35.6875 L 12.0625 -19.359375 L 15.046875 -23.5625 L 24.703125 -35.6875 L 33.109375 -35.6875 L 20.65625 -19.890625 Z M 33.203125 0 "/></g></g><g style="fill:rgb(0%,43.139648%,100%);fill-opacity:1;"><g transform="translate(171.814593, 139.277782)"><path style="stroke:none;" d="M 36.890625 -17.890625 C 36.890625 -11.984375 35.421875 -7.441406 32.484375 -4.265625 C 29.554688 -1.097656 25.359375 0.484375 19.890625 0.484375 C 14.421875 0.484375 10.222656 -1.097656 7.296875 -4.265625 C 4.367188 -7.441406 2.90625 -12 2.90625 -17.9375 C 2.90625 -23.882812 4.375 -28.421875 7.3125 -31.546875 C 10.25 -34.679688 14.460938 -36.25 19.953125 -36.25 C 25.429688 -36.25 29.625 -34.671875 32.53125 -31.515625 C 35.4375 -28.359375 36.890625 -23.816406 36.890625 -17.890625 Z M 10.84375 -17.890625 C 10.84375 -13.910156 11.597656 -10.910156 13.109375 -8.890625 C 14.617188 -6.867188 16.878906 -5.859375 19.890625 -5.859375 C 25.929688 -5.859375 28.953125 -9.867188 28.953125 -17.890625 C 28.953125 -25.929688 25.953125 -29.953125 19.953125 -29.953125 C 16.941406 -29.953125 14.671875 -28.9375 13.140625 -26.90625 C 11.609375 -24.882812 10.84375 -21.878906 10.84375 -17.890625 Z M 10.84375 -17.890625 "/></g></g><g style="fill:rgb(0%,43.139648%,100%);fill-opacity:1;"><g transform="translate(211.603293, 139.277782)"><path style="stroke:none;" d="M 34.109375 -18.1875 C 34.109375 -12.3125 32.4375 -7.8125 29.09375 -4.6875 C 25.75 -1.5625 20.914062 0 14.59375 0 L 4.5 0 L 4.5 -35.6875 L 15.703125 -35.6875 C 21.523438 -35.6875 26.046875 -34.148438 29.265625 -31.078125 C 32.492188 -28.003906 34.109375 -23.707031 34.109375 -18.1875 Z M 26.25 -18 C 26.25 -25.664062 22.863281 -29.5 16.09375 -29.5 L 12.0625 -29.5 L 12.0625 -6.25 L 15.3125 -6.25 C 22.601562 -6.25 26.25 -10.164062 26.25 -18 Z M 26.25 -18 "/></g></g><g style="fill:rgb(0%,43.139648%,100%);fill-opacity:1;"><g transform="translate(248.609225, 139.277782)"><path style="stroke:none;" d="M 4.5 0 L 4.5 -35.6875 L 12.0625 -35.6875 L 12.0625 0 Z M 4.5 0 "/></g></g><g style="fill:rgb(0%,43.139648%,100%);fill-opacity:1;"><g transform="translate(109.657266, 185.982237)"><path style="stroke:none;" d="M 23.703125 0 L 21.375 -7.640625 L 9.671875 -7.640625 L 7.34375 0 L 0 0 L 11.34375 -32.25 L 19.671875 -32.25 L 31.046875 0 Z M 19.75 -13.359375 C 17.601562 -20.285156 16.390625 -24.203125 16.109375 -25.109375 C 15.835938 -26.023438 15.644531 -26.742188 15.53125 -27.265625 C 15.050781 -25.390625 13.664062 -20.753906 11.375 -13.359375 Z M 19.75 -13.359375 "/></g><g transform="translate(140.704626, 185.982237)"><path style="stroke:none;" d="M 10.859375 -17.859375 L 13.046875 -17.859375 C 15.203125 -17.859375 16.789062 -18.21875 17.8125 -18.9375 C 18.84375 -19.65625 19.359375 -20.785156 19.359375 -22.328125 C 19.359375 -23.847656 18.832031 -24.929688 17.78125 -25.578125 C 16.738281 -26.222656 15.117188 -26.546875 12.921875 -26.546875 L 10.859375 -26.546875 Z M 10.859375 -12.328125 L 10.859375 0 L 4.046875 0 L 4.046875 -32.125 L 13.40625 -32.125 C 17.769531 -32.125 21 -31.328125 23.09375 -29.734375 C 25.1875 -28.148438 26.234375 -25.738281 26.234375 -22.5 C 26.234375 -20.613281 25.710938 -18.929688 24.671875 -17.453125 C 23.628906 -15.984375 22.160156 -14.832031 20.265625 -14 C 25.097656 -6.78125 28.242188 -2.113281 29.703125 0 L 22.15625 0 L 14.484375 -12.328125 Z M 10.859375 -12.328125 "/></g></g></g></svg>